<svg xmlns="http://www.w3.org/2000/svg" viewBox="0 0 800 400" width="800" height="400">
  <defs>
    <linearGradient id="bg-1890" x1="0%" y1="0%" x2="100%" y2="100%">
      <stop offset="0%" stop-color="#5B8FA8"/>
      <stop offset="100%" stop-color="#D4C5A9"/>
    </linearGradient>
  </defs>
  <rect width="800" height="400" fill="url(#bg-1890)"/>
  <path d="M0,400 L120.0,180.0 L240.0,280.0 L400.0,120.0 L520.0,220.00000000000003 L640.0,140.0 L800,240.0 L800,400 Z" fill="#D4C5A9" opacity="0.3"/>
  <path d="M0,320.0 Q200.0,260.0 400.0,320.0 T800,300.0 L800,400 L0,400 Z" fill="#D4C5A9" opacity="0.2"/>
  <polygon points="456,264 437.7,386 474.3,386" fill="#D4C5A9" opacity="0.15"/><polygon points="215,258 197.3,376 232.7,376" fill="#D4C5A9" opacity="0.15"/><polygon points="412,252 391.0,392 433.0,392" fill="#D4C5A9" opacity="0.15"/><polygon points="277,299 266.95,366 287.05,366" fill="#D4C5A9" opacity="0.15"/><polygon points="208,253 191.2,365 224.8,365" fill="#D4C5A9" opacity="0.15"/>
  <text x="400.0" y="152.0" text-anchor="middle" font-size="60.0" fill="white" opacity="0.9">☀️</text>
  <text x="400.0" y="224.00000000000003" text-anchor="middle" font-family="Georgia, serif" font-size="32.0" font-weight="600" fill="white" opacity="0.95">Sunshine</text>
  <text x="400.0" y="268.0" text-anchor="middle" font-family="sans-serif" font-size="20.0" fill="white" opacity="0.7">Coast</text>
</svg>