<svg xmlns="http://www.w3.org/2000/svg" viewBox="0 0 800 400" width="800" height="400">
  <defs>
    <linearGradient id="bg-4202" x1="0%" y1="0%" x2="100%" y2="100%">
      <stop offset="0%" stop-color="#5B8FA8"/>
      <stop offset="100%" stop-color="#7A9E7E"/>
    </linearGradient>
  </defs>
  <rect width="800" height="400" fill="url(#bg-4202)"/>
  <path d="M0,400 L120.0,180.0 L240.0,280.0 L400.0,120.0 L520.0,220.00000000000003 L640.0,140.0 L800,240.0 L800,400 Z" fill="#7A9E7E" opacity="0.3"/>
  <path d="M0,320.0 Q200.0,260.0 400.0,320.0 T800,300.0 L800,400 L0,400 Z" fill="#7A9E7E" opacity="0.2"/>
  <polygon points="169,270 150.7,392 187.3,392" fill="#7A9E7E" opacity="0.15"/><polygon points="93,273 78.6,369 107.4,369" fill="#7A9E7E" opacity="0.15"/><polygon points="447,264 427.05,397 466.95,397" fill="#7A9E7E" opacity="0.15"/><polygon points="257,301 245.9,375 268.1,375" fill="#7A9E7E" opacity="0.15"/><polygon points="652,293 635.95,400 668.05,400" fill="#7A9E7E" opacity="0.15"/>
  <text x="400.0" y="152.0" text-anchor="middle" font-size="60.0" fill="white" opacity="0.9">🏙️</text>
  <text x="400.0" y="224.00000000000003" text-anchor="middle" font-family="Georgia, serif" font-size="32.0" font-weight="600" fill="white" opacity="0.95">Vancouver</text>
  <text x="400.0" y="268.0" text-anchor="middle" font-family="sans-serif" font-size="20.0" fill="white" opacity="0.7">Downtown</text>
</svg>