<svg xmlns="http://www.w3.org/2000/svg" viewBox="0 0 800 400" width="800" height="400">
  <defs>
    <linearGradient id="bg-3257" x1="0%" y1="0%" x2="100%" y2="100%">
      <stop offset="0%" stop-color="#7A9E7E"/>
      <stop offset="100%" stop-color="#2C3E50"/>
    </linearGradient>
  </defs>
  <rect width="800" height="400" fill="url(#bg-3257)"/>
  <path d="M0,400 L120.0,180.0 L240.0,280.0 L400.0,120.0 L520.0,220.00000000000003 L640.0,140.0 L800,240.0 L800,400 Z" fill="#2C3E50" opacity="0.3"/>
  <path d="M0,320.0 Q200.0,260.0 400.0,320.0 T800,300.0 L800,400 L0,400 Z" fill="#5B8FA8" opacity="0.2"/>
  <polygon points="645,284 631.65,373 658.35,373" fill="#2C3E50" opacity="0.15"/><polygon points="655,327 645.85,388 664.15,388" fill="#2C3E50" opacity="0.15"/><polygon points="523,262 503.35,393 542.65,393" fill="#2C3E50" opacity="0.15"/><polygon points="397,287 381.7,389 412.3,389" fill="#2C3E50" opacity="0.15"/><polygon points="717,299 702.3,397 731.7,397" fill="#2C3E50" opacity="0.15"/>
  <text x="400.0" y="152.0" text-anchor="middle" font-size="60.0" fill="white" opacity="0.9">🌲</text>
  <text x="400.0" y="224.00000000000003" text-anchor="middle" font-family="Georgia, serif" font-size="32.0" font-weight="600" fill="white" opacity="0.95">Ancient</text>
  <text x="400.0" y="268.0" text-anchor="middle" font-family="sans-serif" font-size="20.0" fill="white" opacity="0.7">Forests</text>
</svg>