<svg xmlns="http://www.w3.org/2000/svg" viewBox="0 0 800 400" width="800" height="400">
  <defs>
    <linearGradient id="bg-9810" x1="0%" y1="0%" x2="100%" y2="100%">
      <stop offset="0%" stop-color="#2C3E50"/>
      <stop offset="100%" stop-color="#7A9E7E"/>
    </linearGradient>
  </defs>
  <rect width="800" height="400" fill="url(#bg-9810)"/>
  <path d="M0,400 L120.0,180.0 L240.0,280.0 L400.0,120.0 L520.0,220.00000000000003 L640.0,140.0 L800,240.0 L800,400 Z" fill="#7A9E7E" opacity="0.3"/>
  <path d="M0,320.0 Q200.0,260.0 400.0,320.0 T800,300.0 L800,400 L0,400 Z" fill="#7A9E7E" opacity="0.2"/>
  <polygon points="55,292 44.35,363 65.65,363" fill="#7A9E7E" opacity="0.15"/><polygon points="80,285 63.35,396 96.65,396" fill="#7A9E7E" opacity="0.15"/><polygon points="505,259 484.0,399 526.0,399" fill="#7A9E7E" opacity="0.15"/><polygon points="436,327 426.7,389 445.3,389" fill="#7A9E7E" opacity="0.15"/><polygon points="110,293 95.45,390 124.55,390" fill="#7A9E7E" opacity="0.15"/>
  <text x="400.0" y="152.0" text-anchor="middle" font-size="60.0" fill="white" opacity="0.9">✨</text>
  <text x="400.0" y="224.00000000000003" text-anchor="middle" font-family="Georgia, serif" font-size="32.0" font-weight="600" fill="white" opacity="0.95">Vallea</text>
  <text x="400.0" y="268.0" text-anchor="middle" font-family="sans-serif" font-size="20.0" fill="white" opacity="0.7">Lumina</text>
</svg>