<svg xmlns="http://www.w3.org/2000/svg" viewBox="0 0 800 400" width="800" height="400">
  <defs>
    <linearGradient id="bg-6883" x1="0%" y1="0%" x2="100%" y2="100%">
      <stop offset="0%" stop-color="#2C3E50"/>
      <stop offset="100%" stop-color="#7A9E7E"/>
    </linearGradient>
  </defs>
  <rect width="800" height="400" fill="url(#bg-6883)"/>
  <path d="M0,400 L120.0,180.0 L240.0,280.0 L400.0,120.0 L520.0,220.00000000000003 L640.0,140.0 L800,240.0 L800,400 Z" fill="#7A9E7E" opacity="0.3"/>
  <path d="M0,320.0 Q200.0,260.0 400.0,320.0 T800,300.0 L800,400 L0,400 Z" fill="#7A9E7E" opacity="0.2"/>
  <polygon points="382,255 365.8,363 398.2,363" fill="#7A9E7E" opacity="0.15"/><polygon points="78,255 60.900000000000006,369 95.1,369" fill="#7A9E7E" opacity="0.15"/><polygon points="447,282 435.0,362 459.0,362" fill="#7A9E7E" opacity="0.15"/><polygon points="729,289 714.3,387 743.7,387" fill="#7A9E7E" opacity="0.15"/><polygon points="282,268 267.3,366 296.7,366" fill="#7A9E7E" opacity="0.15"/>
  <text x="400.0" y="152.0" text-anchor="middle" font-size="60.0" fill="white" opacity="0.9">🐻</text>
  <text x="400.0" y="224.00000000000003" text-anchor="middle" font-family="Georgia, serif" font-size="32.0" font-weight="600" fill="white" opacity="0.95">Black</text>
  <text x="400.0" y="268.0" text-anchor="middle" font-family="sans-serif" font-size="20.0" fill="white" opacity="0.7">Bear</text>
</svg>