<svg xmlns="http://www.w3.org/2000/svg" viewBox="0 0 800 400" width="800" height="400">
  <defs>
    <linearGradient id="bg-5792" x1="0%" y1="0%" x2="100%" y2="100%">
      <stop offset="0%" stop-color="#D4907A"/>
      <stop offset="100%" stop-color="#A8CDD9"/>
    </linearGradient>
  </defs>
  <rect width="800" height="400" fill="url(#bg-5792)"/>
  <path d="M0,400 L120.0,180.0 L240.0,280.0 L400.0,120.0 L520.0,220.00000000000003 L640.0,140.0 L800,240.0 L800,400 Z" fill="#A8CDD9" opacity="0.3"/>
  <path d="M0,320.0 Q200.0,260.0 400.0,320.0 T800,300.0 L800,400 L0,400 Z" fill="#A8CDD9" opacity="0.2"/>
  <polygon points="221,282 204.05,395 237.95,395" fill="#A8CDD9" opacity="0.15"/><polygon points="716,303 703.1,389 728.9,389" fill="#A8CDD9" opacity="0.15"/><polygon points="297,308 286.5,378 307.5,378" fill="#A8CDD9" opacity="0.15"/><polygon points="279,307 268.5,377 289.5,377" fill="#A8CDD9" opacity="0.15"/><polygon points="46,291 35.2,363 56.8,363" fill="#A8CDD9" opacity="0.15"/>
  <text x="400.0" y="152.0" text-anchor="middle" font-size="60.0" fill="white" opacity="0.9">⭐</text>
  <text x="400.0" y="224.00000000000003" text-anchor="middle" font-family="Georgia, serif" font-size="32.0" font-weight="600" fill="white" opacity="0.95">Tide</text>
  <text x="400.0" y="268.0" text-anchor="middle" font-family="sans-serif" font-size="20.0" fill="white" opacity="0.7">Pools</text>
</svg>