<svg xmlns="http://www.w3.org/2000/svg" viewBox="0 0 800 400" width="800" height="400">
  <defs>
    <linearGradient id="bg-3067" x1="0%" y1="0%" x2="100%" y2="100%">
      <stop offset="0%" stop-color="#D4C5A9"/>
      <stop offset="100%" stop-color="#A8CDD9"/>
    </linearGradient>
  </defs>
  <rect width="800" height="400" fill="url(#bg-3067)"/>
  <path d="M0,400 L120.0,180.0 L240.0,280.0 L400.0,120.0 L520.0,220.00000000000003 L640.0,140.0 L800,240.0 L800,400 Z" fill="#A8CDD9" opacity="0.3"/>
  <path d="M0,320.0 Q200.0,260.0 400.0,320.0 T800,300.0 L800,400 L0,400 Z" fill="#A8CDD9" opacity="0.2"/>
  <polygon points="599,317 587.3,395 610.7,395" fill="#A8CDD9" opacity="0.15"/><polygon points="234,302 220.2,394 247.8,394" fill="#A8CDD9" opacity="0.15"/><polygon points="233,256 213.05,389 252.95,389" fill="#A8CDD9" opacity="0.15"/><polygon points="139,290 124.6,386 153.4,386" fill="#A8CDD9" opacity="0.15"/><polygon points="90,232 69.9,366 110.1,366" fill="#A8CDD9" opacity="0.15"/>
  <text x="400.0" y="152.0" text-anchor="middle" font-size="60.0" fill="white" opacity="0.9">🏖️</text>
  <text x="400.0" y="224.00000000000003" text-anchor="middle" font-family="Georgia, serif" font-size="32.0" font-weight="600" fill="white" opacity="0.95">Rathtrevor</text>
  <text x="400.0" y="268.0" text-anchor="middle" font-family="sans-serif" font-size="20.0" fill="white" opacity="0.7">Beach</text>
</svg>