<svg xmlns="http://www.w3.org/2000/svg" viewBox="0 0 800 400" width="800" height="400">
  <defs>
    <linearGradient id="bg-5541" x1="0%" y1="0%" x2="100%" y2="100%">
      <stop offset="0%" stop-color="#A8CDD9"/>
      <stop offset="100%" stop-color="#B5CDAF"/>
    </linearGradient>
  </defs>
  <rect width="800" height="400" fill="url(#bg-5541)"/>
  <path d="M0,400 L120.0,180.0 L240.0,280.0 L400.0,120.0 L520.0,220.00000000000003 L640.0,140.0 L800,240.0 L800,400 Z" fill="#B5CDAF" opacity="0.3"/>
  <path d="M0,320.0 Q200.0,260.0 400.0,320.0 T800,300.0 L800,400 L0,400 Z" fill="#B5CDAF" opacity="0.2"/>
  <polygon points="693,270 676.2,382 709.8,382" fill="#B5CDAF" opacity="0.15"/><polygon points="727,227 706.75,362 747.25,362" fill="#B5CDAF" opacity="0.15"/><polygon points="700,306 687.7,388 712.3,388" fill="#B5CDAF" opacity="0.15"/><polygon points="277,304 266.35,375 287.65,375" fill="#B5CDAF" opacity="0.15"/><polygon points="358,265 338.2,397 377.8,397" fill="#B5CDAF" opacity="0.15"/>
  <text x="400.0" y="152.0" text-anchor="middle" font-size="60.0" fill="white" opacity="0.9">🦭</text>
  <text x="400.0" y="224.00000000000003" text-anchor="middle" font-family="Georgia, serif" font-size="32.0" font-weight="600" fill="white" opacity="0.95">Harbour</text>
  <text x="400.0" y="268.0" text-anchor="middle" font-family="sans-serif" font-size="20.0" fill="white" opacity="0.7">Seals</text>
</svg>