<svg xmlns="http://www.w3.org/2000/svg" viewBox="0 0 800 400" width="800" height="400">
  <defs>
    <linearGradient id="bg-7379" x1="0%" y1="0%" x2="100%" y2="100%">
      <stop offset="0%" stop-color="#2C3E50"/>
      <stop offset="100%" stop-color="#5B8FA8"/>
    </linearGradient>
  </defs>
  <rect width="800" height="400" fill="url(#bg-7379)"/>
  <path d="M0,400 L120.0,180.0 L240.0,280.0 L400.0,120.0 L520.0,220.00000000000003 L640.0,140.0 L800,240.0 L800,400 Z" fill="#5B8FA8" opacity="0.3"/>
  <path d="M0,320.0 Q200.0,260.0 400.0,320.0 T800,300.0 L800,400 L0,400 Z" fill="#5B8FA8" opacity="0.2"/>
  <polygon points="372,282 355.8,390 388.2,390" fill="#5B8FA8" opacity="0.15"/><polygon points="110,245 92.75,360 127.25,360" fill="#5B8FA8" opacity="0.15"/><polygon points="517,247 499.6,363 534.4,363" fill="#5B8FA8" opacity="0.15"/><polygon points="500,292 484.1,398 515.9,398" fill="#5B8FA8" opacity="0.15"/><polygon points="204,246 186.75,361 221.25,361" fill="#5B8FA8" opacity="0.15"/>
  <text x="400.0" y="152.0" text-anchor="middle" font-size="60.0" fill="white" opacity="0.9">🚡</text>
  <text x="400.0" y="224.00000000000003" text-anchor="middle" font-family="Georgia, serif" font-size="32.0" font-weight="600" fill="white" opacity="0.95">Peak 2 Peak</text>
  <text x="400.0" y="268.0" text-anchor="middle" font-family="sans-serif" font-size="20.0" fill="white" opacity="0.7">Gondola</text>
</svg>