<svg xmlns="http://www.w3.org/2000/svg" viewBox="0 0 800 400" width="800" height="400">
  <defs>
    <linearGradient id="bg-4358" x1="0%" y1="0%" x2="100%" y2="100%">
      <stop offset="0%" stop-color="#7A9E7E"/>
      <stop offset="100%" stop-color="#5B8FA8"/>
    </linearGradient>
  </defs>
  <rect width="800" height="400" fill="url(#bg-4358)"/>
  <path d="M0,400 L120.0,180.0 L240.0,280.0 L400.0,120.0 L520.0,220.00000000000003 L640.0,140.0 L800,240.0 L800,400 Z" fill="#5B8FA8" opacity="0.3"/>
  <path d="M0,320.0 Q200.0,260.0 400.0,320.0 T800,300.0 L800,400 L0,400 Z" fill="#5B8FA8" opacity="0.2"/>
  <polygon points="675,281 659.4,385 690.6,385" fill="#5B8FA8" opacity="0.15"/><polygon points="576,291 562.2,383 589.8,383" fill="#5B8FA8" opacity="0.15"/><polygon points="698,257 679.25,382 716.75,382" fill="#5B8FA8" opacity="0.15"/><polygon points="363,242 343.05,375 382.95,375" fill="#5B8FA8" opacity="0.15"/><polygon points="78,272 61.05,385 94.95,385" fill="#5B8FA8" opacity="0.15"/>
  <text x="400.0" y="152.0" text-anchor="middle" font-size="60.0" fill="white" opacity="0.9">⚓</text>
  <text x="400.0" y="224.00000000000003" text-anchor="middle" font-family="Georgia, serif" font-size="32.0" font-weight="600" fill="white" opacity="0.95">Deep Cove</text>
  <text x="400.0" y="268.0" text-anchor="middle" font-family="sans-serif" font-size="20.0" fill="white" opacity="0.7">Indian Arm</text>
</svg>