<svg xmlns="http://www.w3.org/2000/svg" viewBox="0 0 800 400" width="800" height="400">
  <defs>
    <linearGradient id="bg-9837" x1="0%" y1="0%" x2="100%" y2="100%">
      <stop offset="0%" stop-color="#D4907A"/>
      <stop offset="100%" stop-color="#7A9E7E"/>
    </linearGradient>
  </defs>
  <rect width="800" height="400" fill="url(#bg-9837)"/>
  <path d="M0,400 L120.0,180.0 L240.0,280.0 L400.0,120.0 L520.0,220.00000000000003 L640.0,140.0 L800,240.0 L800,400 Z" fill="#7A9E7E" opacity="0.3"/>
  <path d="M0,320.0 Q200.0,260.0 400.0,320.0 T800,300.0 L800,400 L0,400 Z" fill="#7A9E7E" opacity="0.2"/>
  <polygon points="399,261 382.65,370 415.35,370" fill="#7A9E7E" opacity="0.15"/><polygon points="506,246 488.6,362 523.4,362" fill="#7A9E7E" opacity="0.15"/><polygon points="114,271 95.4,395 132.6,395" fill="#7A9E7E" opacity="0.15"/><polygon points="698,279 680.75,394 715.25,394" fill="#7A9E7E" opacity="0.15"/><polygon points="204,271 188.1,377 219.9,377" fill="#7A9E7E" opacity="0.15"/>
  <text x="400.0" y="152.0" text-anchor="middle" font-size="60.0" fill="white" opacity="0.9">🏖️</text>
  <text x="400.0" y="224.00000000000003" text-anchor="middle" font-family="Georgia, serif" font-size="32.0" font-weight="600" fill="white" opacity="0.95">Vancouver Island</text>
  <text x="400.0" y="268.0" text-anchor="middle" font-family="sans-serif" font-size="20.0" fill="white" opacity="0.7">Wild Pacific Coast</text>
</svg>